<svg width="1096" height="624" xmlns="http://www.w3.org/2000/svg" xmlns:xlink="http://www.w3.org/1999/xlink" overflow="hidden"><defs><clipPath id="clip0"><rect x="0" y="0" width="1096" height="624"/></clipPath></defs><g clip-path="url(#clip0)"><rect x="0" y="0" width="1096" height="624.334" fill="#FFFFFF"/><rect x="-24" y="19.0102" width="1145" height="585.313" fill="#FFFFFF"/><g><path d="M76.5001 469.751 1001.5 469.751M76.5001 388.708 1001.5 388.708M76.5001 307.664 1001.5 307.664M76.5001 226.621 1001.5 226.621M76.5001 145.578 1001.5 145.578M76.5001 64.5345 1001.5 64.5345" stroke="#D9D9D9" stroke-linejoin="round" stroke-miterlimit="10" stroke-dasharray="1 1" fill="none"/></g><g><rect x="946" y="283.151" width="26" height="267.143" fill="#84E291" fill-opacity="0.760784"/></g><g><path d="M106 429.229 132 429.229 132 550.294 106 550.294ZM190 146.078 216 146.078 216 550.294 190 550.294ZM274 388.207 300 388.207 300 550.294 274 550.294ZM358 307.164 384 307.164 384 550.294 358 550.294ZM442 348.186 468 348.186 468 550.294 442 550.294ZM526 226.121 552 226.121 552 550.294 526 550.294ZM610 291.156 636 291.156 636 550.294 610 550.294ZM694 186.099 720 186.099 720 550.294 694 550.294ZM778 275.147 804 275.147 804 550.294 778 550.294ZM862 259.138 888 259.138 888 550.294 862 550.294Z" fill="#0070C0" fill-opacity="0.760784"/></g><g><path d="M0 0 0.000104987 485" stroke="#000000" stroke-linejoin="round" stroke-miterlimit="10" fill="none" fill-rule="evenodd" transform="matrix(1 0 0 -1.00053 1001.5 549.794)"/></g><g><path d="M1001.5 549.794 1005.5 549.794M1001.5 489.762 1005.5 489.762M1001.5 428.729 1005.5 428.729M1001.5 368.697 1005.5 368.697M1001.5 307.664 1005.5 307.664M1001.5 246.632 1005.5 246.632M1001.5 186.6 1005.5 186.6M1001.5 125.567 1005.5 125.567M1001.5 64.5345 1005.5 64.5345" stroke="#000000" stroke-linejoin="round" stroke-miterlimit="10" fill="none"/></g><g><path d="M0 0 0.000104987 485" stroke="#000000" stroke-linejoin="round" stroke-miterlimit="10" fill="none" fill-rule="evenodd" transform="matrix(1 0 0 -1.00053 76.5001 549.794)"/></g><g><path d="M71.5001 549.794 76.5001 549.794M71.5001 469.751 76.5001 469.751M71.5001 388.708 76.5001 388.708M71.5001 307.664 76.5001 307.664M71.5001 226.621 76.5001 226.621M71.5001 145.578 76.5001 145.578M71.5001 64.5345 76.5001 64.5345" stroke="#000000" stroke-linejoin="round" stroke-miterlimit="10" fill="none"/></g><g><path d="M76.5001 549.794 1001.5 549.794" stroke="#000000" stroke-linejoin="round" stroke-miterlimit="10" fill="none" fill-rule="evenodd"/></g><g><path d="M76.5001 549.794 76.5001 554.796M160.5 549.794 160.5 554.796M244.5 549.794 244.5 554.796M328.5 549.794 328.5 554.796M412.5 549.794 412.5 554.796M496.5 549.794 496.5 554.796M580.5 549.794 580.5 554.796M664.5 549.794 664.5 554.796M749.5 549.794 749.5 554.796M833.5 549.794 833.5 554.796M917.5 549.794 917.5 554.796M1001.5 549.794 1001.5 554.796" stroke="#000000" stroke-linejoin="round" stroke-miterlimit="10" fill="none"/></g><g><path d="M118.5 398.713 202.5 267.643 286.5 307.664 370.5 95.5511 454.5 186.6 538.5 246.632 622.5 201.608 707.5 280.65 791.5 186.6 875.5 298.66" stroke="#FF0000" stroke-width="3" stroke-linecap="round" stroke-linejoin="round" stroke-miterlimit="10" stroke-opacity="0.529412" fill="none"/></g><g><path d="M121.856 398.102C121.856 400.312 120.065 402.104 117.856 402.104 115.647 402.104 113.856 400.312 113.856 398.102 113.856 395.892 115.647 394.1 117.856 394.1 120.065 394.1 121.856 395.892 121.856 398.102Z" stroke="#FF0000" stroke-linejoin="round" stroke-miterlimit="10" fill="#FF0000"/><path d="M205.856 267.032C205.856 269.242 204.065 271.034 201.856 271.034 199.647 271.034 197.856 269.242 197.856 267.032 197.856 264.822 199.647 263.03 201.856 263.03 204.065 263.03 205.856 264.822 205.856 267.032Z" stroke="#FF0000" stroke-linejoin="round" stroke-miterlimit="10" fill="#FF0000"/><path d="M289.856 307.053C289.856 309.263 288.065 311.055 285.856 311.055 283.647 311.055 281.856 309.263 281.856 307.053 281.856 304.843 283.647 303.051 285.856 303.051 288.065 303.051 289.856 304.843 289.856 307.053Z" stroke="#FF0000" stroke-linejoin="round" stroke-miterlimit="10" fill="#FF0000"/><path d="M373.856 94.9398C373.856 97.1501 372.065 98.9419 369.856 98.9419 367.647 98.9419 365.856 97.1501 365.856 94.9398 365.856 92.7296 367.647 90.9378 369.856 90.9378 372.065 90.9378 373.856 92.7296 373.856 94.9398Z" stroke="#FF0000" stroke-linejoin="round" stroke-miterlimit="10" fill="#FF0000"/><path d="M457.856 185.988C457.856 188.199 456.065 189.991 453.856 189.991 451.647 189.991 449.856 188.199 449.856 185.988 449.856 183.778 451.647 181.986 453.856 181.986 456.065 181.986 457.856 183.778 457.856 185.988Z" stroke="#FF0000" stroke-linejoin="round" stroke-miterlimit="10" fill="#FF0000"/><path d="M541.856 246.021C541.856 248.231 540.065 250.023 537.856 250.023 535.647 250.023 533.856 248.231 533.856 246.021 533.856 243.81 535.647 242.019 537.856 242.019 540.065 242.019 541.856 243.81 541.856 246.021Z" stroke="#FF0000" stroke-linejoin="round" stroke-miterlimit="10" fill="#FF0000"/><path d="M625.856 200.997C625.856 203.207 624.065 204.999 621.856 204.999 619.647 204.999 617.856 203.207 617.856 200.997 617.856 198.786 619.647 196.994 621.856 196.994 624.065 196.994 625.856 198.786 625.856 200.997Z" stroke="#FF0000" stroke-linejoin="round" stroke-miterlimit="10" fill="#FF0000"/><path d="M710.856 280.039C710.856 282.249 709.065 284.041 706.856 284.041 704.647 284.041 702.856 282.249 702.856 280.039 702.856 277.828 704.647 276.037 706.856 276.037 709.065 276.037 710.856 277.828 710.856 280.039Z" stroke="#FF0000" stroke-linejoin="round" stroke-miterlimit="10" fill="#FF0000"/><path d="M794.856 185.988C794.856 188.199 793.065 189.991 790.856 189.991 788.647 189.991 786.856 188.199 786.856 185.988 786.856 183.778 788.647 181.986 790.856 181.986 793.065 181.986 794.856 183.778 794.856 185.988Z" stroke="#FF0000" stroke-linejoin="round" stroke-miterlimit="10" fill="#FF0000"/><path d="M878.856 298.048C878.856 300.259 877.065 302.05 874.856 302.05 872.647 302.05 870.856 300.259 870.856 298.048 870.856 295.838 872.647 294.046 874.856 294.046 877.065 294.046 878.856 295.838 878.856 298.048Z" stroke="#FF0000" stroke-linejoin="round" stroke-miterlimit="10" fill="#FF0000"/></g><g><text font-family="Arial,Arial_MSFontService,sans-serif" font-weight="400" font-size="16" transform="matrix(1 0 0 1.00053 1014.86 555)">0</text></g><g><text font-family="Arial,Arial_MSFontService,sans-serif" font-weight="400" font-size="16" transform="matrix(1 0 0 1.00053 1014.86 494)">0.02</text></g><g><text font-family="Arial,Arial_MSFontService,sans-serif" font-weight="400" font-size="16" transform="matrix(1 0 0 1.00053 1014.86 434)">0.04</text></g><g><text font-family="Arial,Arial_MSFontService,sans-serif" font-weight="400" font-size="16" transform="matrix(1 0 0 1.00053 1014.86 373)">0.06</text></g><g><text font-family="Arial,Arial_MSFontService,sans-serif" font-weight="400" font-size="16" transform="matrix(1 0 0 1.00053 1014.86 312)">0.08</text></g><g><text font-family="Arial,Arial_MSFontService,sans-serif" font-weight="400" font-size="16" transform="matrix(1 0 0 1.00053 1014.86 252)">0.1</text></g><g><text font-family="Arial,Arial_MSFontService,sans-serif" font-weight="400" font-size="16" transform="matrix(1 0 0 1.00053 1014.86 191)">0.12</text></g><g><text font-family="Arial,Arial_MSFontService,sans-serif" font-weight="400" font-size="16" transform="matrix(1 0 0 1.00053 1014.86 130)">0.14</text></g><g><text font-family="Arial,Arial_MSFontService,sans-serif" font-weight="400" font-size="16" transform="matrix(1 0 0 1.00053 1014.86 69)">0.16</text></g><g><text font-family="Arial,Arial_MSFontService,sans-serif" font-weight="400" font-size="16" transform="matrix(1 0 0 1.00053 54.1447 555)">0</text></g><g><text font-family="Arial,Arial_MSFontService,sans-serif" font-weight="400" font-size="16" transform="matrix(1 0 0 1.00053 45.2446 474)">10</text></g><g><text font-family="Arial,Arial_MSFontService,sans-serif" font-weight="400" font-size="16" transform="matrix(1 0 0 1.00053 45.2446 393)">20</text></g><g><text font-family="Arial,Arial_MSFontService,sans-serif" font-weight="400" font-size="16" transform="matrix(1 0 0 1.00053 45.2446 312)">30</text></g><g><text font-family="Arial,Arial_MSFontService,sans-serif" font-weight="400" font-size="16" transform="matrix(1 0 0 1.00053 45.2446 231)">40</text></g><g><text font-family="Arial,Arial_MSFontService,sans-serif" font-weight="400" font-size="16" transform="matrix(1 0 0 1.00053 45.2446 150)">50</text></g><g><text font-family="Arial,Arial_MSFontService,sans-serif" font-weight="400" font-size="16" transform="matrix(1 0 0 1.00053 45.2446 69)">60</text></g><g><text font-family="Arial,Arial_MSFontService,sans-serif" font-weight="400" font-size="16" transform="matrix(1 0 0 1.00053 109.039 574)">S1</text></g><g><text font-family="Arial,Arial_MSFontService,sans-serif" font-weight="400" font-size="16" transform="matrix(1 0 0 1.00053 193.065 574)">S2</text></g><g><text font-family="Arial,Arial_MSFontService,sans-serif" font-weight="400" font-size="16" transform="matrix(1 0 0 1.00053 277.09 574)">S3</text></g><g><text font-family="Arial,Arial_MSFontService,sans-serif" font-weight="400" font-size="16" transform="matrix(1 0 0 1.00053 361.115 574)">S4</text></g><g><text font-family="Arial,Arial_MSFontService,sans-serif" font-weight="400" font-size="16" transform="matrix(1 0 0 1.00053 445.14 574)">S5</text></g><g><text font-family="Arial,Arial_MSFontService,sans-serif" font-weight="400" font-size="16" transform="matrix(1 0 0 1.00053 529.165 574)">S6</text></g><g><text font-family="Arial,Arial_MSFontService,sans-serif" font-weight="400" font-size="16" transform="matrix(1 0 0 1.00053 613.19 574)">S7</text></g><g><text font-family="Arial,Arial_MSFontService,sans-serif" font-weight="400" font-size="16" transform="matrix(1 0 0 1.00053 697.215 574)">S8</text></g><g><text font-family="Arial,Arial_MSFontService,sans-serif" font-weight="400" font-size="16" transform="matrix(1 0 0 1.00053 781.24 574)">S9</text></g><g><text font-family="Arial,Arial_MSFontService,sans-serif" font-weight="400" font-size="16" transform="matrix(1 0 0 1.00053 860.815 574)">S10</text></g><g><text font-family="Arial,Arial_MSFontService,sans-serif" font-weight="400" font-size="16" transform="matrix(1 0 0 1.00053 925.716 574)">Expected</text></g><g><text font-family="Arial,Arial_MSFontService,sans-serif" font-weight="700" font-size="18.6766" transform="matrix(6.12323e-17 -1.00107 0.999466 6.12651e-17 1079.98 422)">Scenario Probability</text></g><g><text font-family="Arial,Arial_MSFontService,sans-serif" font-weight="700" font-size="18.6766" transform="matrix(6.12323e-17 -1.00107 0.999466 6.12651e-17 25.9869 469)">Objective Function Value (£ Billion)</text></g><g><text font-family="Arial,Arial_MSFontService,sans-serif" font-weight="400" font-size="18.6766" transform="matrix(6.12323e-17 -1.00107 0.999466 6.12651e-17 33.7053 104)">Billions</text></g><g><rect x="344" y="39.0208" width="25" height="10.0053" fill="#0070C0" fill-opacity="0.760784"/></g><g><text font-family="Arial,Arial_MSFontService,sans-serif" font-weight="400" font-size="19" transform="matrix(1 0 0 1.00053 371.824 50)">Objective function</text></g><g><path d="M575.5 43.5233 601.5 43.5234" stroke="#FF0000" stroke-width="3" stroke-linecap="round" stroke-linejoin="round" stroke-miterlimit="10" stroke-opacity="0.529412" fill="none" fill-rule="evenodd"/></g><g><path d="M592 43.023C592 45.2333 590.209 47.0251 588 47.0251 585.791 47.0251 584 45.2333 584 43.023 584 40.8127 585.791 39.0208 588 39.0208 590.209 39.0208 592 40.8127 592 43.023Z" stroke="#FF0000" stroke-linejoin="round" stroke-miterlimit="10" fill="#FF0000"/></g><g><text font-family="Arial,Arial_MSFontService,sans-serif" font-weight="400" font-size="19" transform="matrix(1 0 0 1.00053 604.147 50)">Probability</text></g></g></svg>